<svg xmlns="http://www.w3.org/2000/svg" width="180" height="40" viewBox="0 0 147.53 32.91">
      <g id="logo">
        <g id="neamedia">
          <polygon points="12.73 15.63 3.35 4.82 3.35 15.63 0.23 15.63 0.23 0 3.35 0 12.73 10.81 12.73 0 15.85 0 15.85 15.63 12.73 15.63 12.73 15.63"/>
          <polygon points="22.1 15.63 22.1 0 37.72 0 37.72 3.06 25.22 3.06 25.22 6.27 34.6 6.27 34.6 9.36 25.22 9.36 25.22 12.57 37.72 12.57 37.72 15.63 22.1 15.63 22.1 15.63"/>
          <path d="M59.6,15.63,52.71,0H49.59L42.7,15.63h3.42l1.48-3.32h7.11l1.48,3.32ZM53.44,9.37H48.86l2.28-5.19,2.3,5.19Z"/>
          <path d="M17.38,32.51H16.27l-1.59.06V32c1.25,0,1.37-.39,1.37-1.35l0-5.9c0-1.35,0-2.5-1.26-2.64a7,7,0,0,0-4.3,1.68v6.76c0,1.21.11,1.45,1.35,1.45v.54l-1.71-.06H9.05l-1.62.06V32c1.29,0,1.44-.48,1.44-1.47v-5.9c0-1.29,0-2.41-1.23-2.55a6.49,6.49,0,0,0-4.3,1.65v6.82c0,1.18,0,1.45,1.26,1.45v.54l-1.71-.06H1.74l-1.59.06V32c1.2,0,1.41-.37,1.41-1.45V23C1.56,22,1.23,21.5,0,21.5V21l1.81,0c1.35,0,1.53.15,1.53,1.23v.67c1-1,2.86-2.14,4.42-2a2.71,2.71,0,0,1,2.71,2.1,6.69,6.69,0,0,1,4.72-2.07c2.16.15,2.59,1.69,2.59,3.49v6.23c0,1.26.08,1.5,1.32,1.5v.54l-1.72-.06Z"/>
          <path d="M26.41,21.65c-1.69.06-3.1,1.81-3.1,4.18h3.75c1.87,0,2.32-.15,2.35-1a3.15,3.15,0,0,0-3-3.19m-5,5.48c0-3.85,2.37-6.2,5.11-6.23a4.62,4.62,0,0,1,4.69,5c0,.84-.24.72-.63.72-2,0-5.14,0-7.24,0,0,2.34,1.29,6.91,7.75,4.29l.21.58c-7.12,3.39-9.89-1.14-9.89-4.42Z"/>
          <path d="M38.52,21.65c-.67,0-1,0-1.89.06v8.63c0,1.35.66,1.57,2.19,1.57a4.73,4.73,0,0,0,4.54-5c-.06-3.13-2-5.27-4.84-5.27M39,32.57l-2.8-.06-2.61.06V32c1.26,0,1.38-.34,1.38-1.42V22.55c0-1-.33-1.05-1.38-1.05V21l2.35,0,2.67,0c3,0,6.17,1.29,6.62,5.36.47,3.9-2.83,6.31-6.23,6.25Z"/>
          <path d="M50.7,22.59v8.09c0,1.11.06,1.35,1.35,1.35v.54l-1.68-.06H49.23l-1.63.06V32c1.29,0,1.42-.3,1.42-1.32v-8c0-.88-.19-1.21-1.42-1.21V21l1.63,0h1.14l1.71,0v.54c-1,0-1.38.21-1.38,1.09"/>
          <path d="M61.41,27.07c-3.13,0-4.88,1.05-4.91,2.58,0,1.27,1,3.43,4.91.84V27.07Zm1.86,5.77c-1,0-1.83-.51-1.83-1.53-4.94,3.48-7,.45-6.83-1.33s2.34-3.73,6.77-3.73V24c0-1.72-.34-2.38-1.54-2.38-1.84,0-3,1.18-3,2.35,0,.35-1,.63-1.2.63-.75,0-.48-1.08-.09-1.62a6.58,6.58,0,0,1,4.81-2.17,2.44,2.44,0,0,1,2.8,2.62V30c0,1.08,0,2.05.87,1.87a2.33,2.33,0,0,0,1.11-.54l.33.41a3.54,3.54,0,0,1-2.22,1.15Z"/>
        </g>
        <path id="dot" d="M66.84,16.76a2,2,0,1,1-2-2,2,2,0,0,1,2,2"/>
      </g>
      <g id="baseline">
        <path d="M77.86,13.4a1.88,1.88,0,0,0,.93-.22,1.85,1.85,0,0,0,.6-.58,2.38,2.38,0,0,0,.32-.82,4.23,4.23,0,0,0,.1-.94V7.21H81v3.63a5.55,5.55,0,0,1-.17,1.38,3.18,3.18,0,0,1-.55,1.14,2.37,2.37,0,0,1-1,.77,3.61,3.61,0,0,1-2.86,0,2.56,2.56,0,0,1-1-.8,3.32,3.32,0,0,1-.53-1.14,5.92,5.92,0,0,1-.16-1.34V7.21H75.9v3.63a4.19,4.19,0,0,0,.1.95,2.38,2.38,0,0,0,.32.82,1.64,1.64,0,0,0,.6.57A1.84,1.84,0,0,0,77.86,13.4Z"/>
        <path d="M86.93,14.37h-1.1v-3a1.81,1.81,0,0,0-.25-1.08.79.79,0,0,0-.69-.34,1.46,1.46,0,0,0-.49.09,1.75,1.75,0,0,0-.46.26,2,2,0,0,0-.38.39,1.8,1.8,0,0,0-.25.5v3.14H82.2V9.09h1v1.06a2.2,2.2,0,0,1,.87-.84A2.74,2.74,0,0,1,85.35,9a1.5,1.5,0,0,1,.78.18,1.28,1.28,0,0,1,.49.46,1.88,1.88,0,0,1,.24.69,4.32,4.32,0,0,1,.07.82Z"/>
        <path d="M88.18,8.23V7h1.11V8.23Zm0,6.14V9.09h1.11v5.28Z"/>
        <path d="M92.61,14.47a2,2,0,0,1-.94-.23,2.22,2.22,0,0,1-.74-.59,3,3,0,0,1-.48-.87,3.36,3.36,0,0,1-.17-1.06,2.84,2.84,0,0,1,.19-1.05A2.55,2.55,0,0,1,91,9.8a2.34,2.34,0,0,1,.78-.58,2.32,2.32,0,0,1,1-.22,2,2,0,0,1,1.09.3,2.21,2.21,0,0,1,.77.75v-1h1v6.06a.3.3,0,0,0,.32.36v1l-.26,0H95.4a1,1,0,0,1-.64-.21.74.74,0,0,1-.27-.59V13.38a2.15,2.15,0,0,1-.8.81A2.17,2.17,0,0,1,92.61,14.47Zm.4-1a1.36,1.36,0,0,0,.87-.29,2.25,2.25,0,0,0,.61-.72V11.12a1.13,1.13,0,0,0-.2-.45,1.58,1.58,0,0,0-.36-.37,1.73,1.73,0,0,0-.44-.25A1.22,1.22,0,0,0,93,10a1.37,1.37,0,0,0-.64.15,1.57,1.57,0,0,0-.51.41,1.89,1.89,0,0,0-.33.57,2,2,0,0,0-.12.67,1.92,1.92,0,0,0,.12.69,1.73,1.73,0,0,0,.33.56,1.62,1.62,0,0,0,.51.38A1.5,1.5,0,0,0,93,13.52Z"/>
        <path d="M98.52,14.47a1.46,1.46,0,0,1-1.23-.54,2.53,2.53,0,0,1-.43-1.61V9.09H98v3c0,.94.33,1.42,1,1.42a1.63,1.63,0,0,0,.91-.29,1.88,1.88,0,0,0,.65-.85V9.09h1.11v4a.41.41,0,0,0,.07.27.39.39,0,0,0,.25.09v.95l-.31,0h-.23c-.42,0-.66-.23-.71-.58l0-.54a2.4,2.4,0,0,1-.92.87A2.6,2.6,0,0,1,98.52,14.47Z"/>
        <path d="M105.48,14.47a2.87,2.87,0,0,1-1.12-.22,2.53,2.53,0,0,1-.86-.59,2.65,2.65,0,0,1-.56-.87,2.82,2.82,0,0,1-.19-1,2.89,2.89,0,0,1,.19-1.06,2.65,2.65,0,0,1,.56-.87,2.42,2.42,0,0,1,.86-.6A2.88,2.88,0,0,1,105.49,9a2.65,2.65,0,0,1,1.11.23,2.45,2.45,0,0,1,.85.59,2.37,2.37,0,0,1,.54.85,3,3,0,0,1,.19,1c0,.09,0,.16,0,.23a1.41,1.41,0,0,0,0,.18h-4.23a1.83,1.83,0,0,0,.17.63,1.75,1.75,0,0,0,.35.49,1.64,1.64,0,0,0,.5.32,1.62,1.62,0,0,0,.58.11,1.59,1.59,0,0,0,.43-.06,1.29,1.29,0,0,0,.4-.16,1.59,1.59,0,0,0,.33-.25,1.52,1.52,0,0,0,.22-.34l.94.28a2.2,2.2,0,0,1-.9,1A2.81,2.81,0,0,1,105.48,14.47Zm1.6-3.14a1.78,1.78,0,0,0-.17-.61,1.42,1.42,0,0,0-.35-.48,1.46,1.46,0,0,0-.49-.31,1.71,1.71,0,0,0-.59-.11,1.63,1.63,0,0,0-.59.11,1.46,1.46,0,0,0-.49.31,1.39,1.39,0,0,0-.34.48,1.78,1.78,0,0,0-.17.61Z"/>
        <path d="M113.92,14.47a2.67,2.67,0,0,1-1.12-.23,2.36,2.36,0,0,1-.85-.59,2.63,2.63,0,0,1-.55-.87,3,3,0,0,1,0-2.09,2.63,2.63,0,0,1,.55-.87,2.49,2.49,0,0,1,.86-.59,2.79,2.79,0,0,1,2.22,0,2.49,2.49,0,0,1,.86.59,2.63,2.63,0,0,1,.55.87,3,3,0,0,1,0,2.09,2.63,2.63,0,0,1-.55.87,2.49,2.49,0,0,1-.86.59A2.65,2.65,0,0,1,113.92,14.47Zm-1.57-2.72a2,2,0,0,0,.12.7,1.73,1.73,0,0,0,.33.56,1.52,1.52,0,0,0,.5.37,1.44,1.44,0,0,0,1.24,0A1.42,1.42,0,0,0,115,13a1.73,1.73,0,0,0,.33-.56,2.1,2.1,0,0,0,0-1.4,1.78,1.78,0,0,0-.33-.57,1.42,1.42,0,0,0-.5-.38,1.42,1.42,0,0,0-1.23,0,1.58,1.58,0,0,0-.5.39,1.83,1.83,0,0,0-.46,1.27Z"/>
        <path d="M120.44,14.47a2.12,2.12,0,0,1-1.1-.29,2,2,0,0,1-.77-.77v1h-1V7h1.11v3.08a2.45,2.45,0,0,1,.78-.79,2,2,0,0,1,1.1-.3,2.06,2.06,0,0,1,1,.23,2.18,2.18,0,0,1,.74.61,2.61,2.61,0,0,1,.47.87,3.29,3.29,0,0,1,.17,1,2.85,2.85,0,0,1-.19,1.06,2.59,2.59,0,0,1-.53.86,2.34,2.34,0,0,1-.78.58A2.17,2.17,0,0,1,120.44,14.47Zm-.29-1a1.45,1.45,0,0,0,.66-.15,1.35,1.35,0,0,0,.52-.39,1.64,1.64,0,0,0,.34-.55,2,2,0,0,0,.12-.68,2.14,2.14,0,0,0-.11-.67,1.83,1.83,0,0,0-.33-.58,1.72,1.72,0,0,0-.49-.4,1.33,1.33,0,0,0-.63-.15,1.3,1.3,0,0,0-.49.09,1.51,1.51,0,0,0-.42.25,2,2,0,0,0-.36.36,2.82,2.82,0,0,0-.26.44v1.39a1.11,1.11,0,0,0,.21.42,1.91,1.91,0,0,0,.36.33,1.72,1.72,0,0,0,.43.21A1.53,1.53,0,0,0,120.15,13.52Z"/>
        <path d="M123.29,16.29a2.15,2.15,0,0,1-.68-.11,1.75,1.75,0,0,1-.59-.34l.5-.75a.75.75,0,0,0,.3.18,1.33,1.33,0,0,0,.34.05.73.73,0,0,0,.52-.21.75.75,0,0,0,.23-.55V9.09H125v5.39a1.9,1.9,0,0,1-.14.73,1.85,1.85,0,0,1-.37.58,1.72,1.72,0,0,1-.55.37A1.67,1.67,0,0,1,123.29,16.29Zm.62-8.06V7H125V8.23Z"/>
        <path d="M128.72,14.47a2.82,2.82,0,0,1-1.11-.22,2.68,2.68,0,0,1-.87-.59,2.8,2.8,0,0,1-.55-.87,2.83,2.83,0,0,1-.2-1,2.89,2.89,0,0,1,.2-1.06,2.8,2.8,0,0,1,.55-.87,2.55,2.55,0,0,1,.87-.6A2.87,2.87,0,0,1,128.73,9a2.7,2.7,0,0,1,1.12.23,2.55,2.55,0,0,1,.85.59,2.68,2.68,0,0,1,.54.85,3,3,0,0,1,.18,1v.23q0,.11,0,.18h-4.22a1.83,1.83,0,0,0,.17.63,1.75,1.75,0,0,0,.35.49,1.64,1.64,0,0,0,.5.32,1.56,1.56,0,0,0,.57.11,1.61,1.61,0,0,0,.44-.06,1.29,1.29,0,0,0,.4-.16,1.31,1.31,0,0,0,.32-.25,1.27,1.27,0,0,0,.23-.34l.94.28a2.2,2.2,0,0,1-.9,1A2.82,2.82,0,0,1,128.72,14.47Zm1.61-3.14a1.78,1.78,0,0,0-.17-.61,1.57,1.57,0,0,0-.35-.48,1.46,1.46,0,0,0-.49-.31,1.66,1.66,0,0,0-1.19,0,1.52,1.52,0,0,0-.48.31,1.42,1.42,0,0,0-.35.48,2,2,0,0,0-.16.61Z"/>
        <path d="M132,11.72a2.82,2.82,0,0,1,.19-1,2.63,2.63,0,0,1,.55-.87,2.74,2.74,0,0,1,.86-.59A2.92,2.92,0,0,1,134.72,9a2.69,2.69,0,0,1,1.41.36,2.36,2.36,0,0,1,.88,1l-1.08.35a1.41,1.41,0,0,0-.51-.52,1.39,1.39,0,0,0-.72-.19,1.6,1.6,0,0,0-.62.13,1.52,1.52,0,0,0-.5.37,1.73,1.73,0,0,0-.33.56,2,2,0,0,0-.12.71,2.09,2.09,0,0,0,.12.72,1.89,1.89,0,0,0,.35.56,1.42,1.42,0,0,0,.5.38,1.43,1.43,0,0,0,.61.14,1.39,1.39,0,0,0,.4-.06,1.37,1.37,0,0,0,.37-.15,1.73,1.73,0,0,0,.29-.23.85.85,0,0,0,.19-.29l1.09.33a2.21,2.21,0,0,1-.88,1,2.91,2.91,0,0,1-2.57.15,2.47,2.47,0,0,1-.86-.6,2.81,2.81,0,0,1-.75-1.92Z"/>
        <path d="M140.9,14.09a5.66,5.66,0,0,1-.59.23,2.58,2.58,0,0,1-.8.13,1.53,1.53,0,0,1-.49-.08,1,1,0,0,1-.4-.21.92.92,0,0,1-.28-.36,1.35,1.35,0,0,1-.1-.55V10h-.71V9.09h.71V7.36h1.11V9.09h1.14V10h-1.14v2.94a.48.48,0,0,0,.16.41.58.58,0,0,0,.39.13,1.32,1.32,0,0,0,.44-.08l.32-.13Z"/>
        <path d="M143.59,14.47a4.74,4.74,0,0,1-.65-.05c-.22,0-.44-.09-.65-.15a3.92,3.92,0,0,1-.6-.23,3.14,3.14,0,0,1-.51-.31l.46-.75a3.38,3.38,0,0,0,1.93.68,1.4,1.4,0,0,0,.79-.19.62.62,0,0,0,.3-.55.5.5,0,0,0-.33-.48,5.12,5.12,0,0,0-1-.33,6.88,6.88,0,0,1-.85-.25,2.41,2.41,0,0,1-.58-.28,1.11,1.11,0,0,1-.32-.37,1.21,1.21,0,0,1-.1-.52,1.66,1.66,0,0,1,.16-.72,1.73,1.73,0,0,1,.44-.53,1.93,1.93,0,0,1,.66-.32,2.64,2.64,0,0,1,.81-.12,3.24,3.24,0,0,1,1.11.19,3.42,3.42,0,0,1,.95.49l-.47.67a2.67,2.67,0,0,0-1.61-.56,1.35,1.35,0,0,0-.72.18.67.67,0,0,0-.23.83.53.53,0,0,0,.2.19,2.44,2.44,0,0,0,.35.15l.55.14.94.26a2.81,2.81,0,0,1,.65.31,1.18,1.18,0,0,1,.37.41,1.26,1.26,0,0,1,.12.57,1.51,1.51,0,0,1-.15.68,1.4,1.4,0,0,1-.43.51,2,2,0,0,1-.67.33A3.07,3.07,0,0,1,143.59,14.47Z"/>
        <path d="M146.61,14.37V13.08h.92v1.29Z"/>
        <path d="M79.19,20.64a2.28,2.28,0,0,0-.81-.55,3,3,0,0,0-1.15-.21,2.16,2.16,0,0,0-1.39.36,1.17,1.17,0,0,0-.43,1,1.19,1.19,0,0,0,.11.53,1,1,0,0,0,.37.35,2.4,2.4,0,0,0,.62.27l.89.22a8.94,8.94,0,0,1,1,.27,2.82,2.82,0,0,1,.78.37,1.51,1.51,0,0,1,.49.55A1.79,1.79,0,0,1,79.15,26a2.11,2.11,0,0,1-.82.36,4.48,4.48,0,0,1-3.9-.92l.34-.57a3.43,3.43,0,0,0,1.06.7,3.72,3.72,0,0,0,1.48.28,2.53,2.53,0,0,0,1.34-.3,1.05,1.05,0,0,0,.49-.94,1.11,1.11,0,0,0-.14-.56,1.19,1.19,0,0,0-.41-.39,3.38,3.38,0,0,0-.68-.29c-.27-.08-.58-.16-.94-.24a7.67,7.67,0,0,1-1-.27,2.48,2.48,0,0,1-.71-.35,1.4,1.4,0,0,1-.43-.51,1.61,1.61,0,0,1-.15-.73,1.93,1.93,0,0,1,.19-.88,1.74,1.74,0,0,1,.52-.65,2.54,2.54,0,0,1,.81-.39,3.72,3.72,0,0,1,1-.14,3.64,3.64,0,0,1,1.27.22,3.37,3.37,0,0,1,1,.61Z"/>
        <path d="M83.28,26.56a2.45,2.45,0,0,1-1.06-.22,2.61,2.61,0,0,1-.84-.59,2.8,2.8,0,0,1-.55-.87,2.89,2.89,0,0,1-.19-1.06,2.84,2.84,0,0,1,.19-1.05,2.71,2.71,0,0,1,.55-.85,2.85,2.85,0,0,1,.83-.59,2.76,2.76,0,0,1,2.11,0,2.57,2.57,0,0,1,.82.59,2.84,2.84,0,0,1,.54.86,2.94,2.94,0,0,1,.19,1,.92.92,0,0,1,0,.16c0,.05,0,.09,0,.11H81.36a2.24,2.24,0,0,0,.2.78,2.12,2.12,0,0,0,.42.62,1.78,1.78,0,0,0,.6.41,1.72,1.72,0,0,0,.72.15,1.81,1.81,0,0,0,.51-.08,1.93,1.93,0,0,0,.47-.19,1.76,1.76,0,0,0,.37-.29,1.4,1.4,0,0,0,.26-.39l.59.16a1.77,1.77,0,0,1-.34.53,2.55,2.55,0,0,1-.51.41,2.35,2.35,0,0,1-.65.27A2.46,2.46,0,0,1,83.28,26.56Zm1.93-3a2.08,2.08,0,0,0-.19-.77,2,2,0,0,0-1-1,1.95,1.95,0,0,0-1.45,0,1.91,1.91,0,0,0-.6.4,1.73,1.73,0,0,0-.41.6,2.18,2.18,0,0,0-.19.77Z"/>
        <path d="M89.51,21.81a2.12,2.12,0,0,0-1.2.39,1.88,1.88,0,0,0-.73,1v3.27h-.69V21.21h.65v1.26a2.88,2.88,0,0,1,.71-.93,1.51,1.51,0,0,1,1-.36h.3Z"/>
        <path d="M90.43,20.11v-1h.69v1Zm0,6.35V21.21h.69v5.25Z"/>
        <path d="M94,26.56a2,2,0,0,1-.74-.13,1.65,1.65,0,0,1-.57-.35,1.62,1.62,0,0,1-.5-1.12,1.32,1.32,0,0,1,.17-.66,1.37,1.37,0,0,1,.45-.51,2.27,2.27,0,0,1,.7-.33,3.16,3.16,0,0,1,.9-.12,5.78,5.78,0,0,1,.81.07,3.5,3.5,0,0,1,.73.21v-.48a1.52,1.52,0,0,0-.39-1.1,1.46,1.46,0,0,0-1.08-.41,2.28,2.28,0,0,0-.84.16,3.81,3.81,0,0,0-.85.47l-.24-.46a4.12,4.12,0,0,1,1-.51,2.8,2.8,0,0,1,1-.17,1.93,1.93,0,0,1,2.09,2.08v2.37c0,.19.08.28.24.28v.61h-.27a.61.61,0,0,1-.37-.12A.5.5,0,0,1,96,26l0-.41a2.15,2.15,0,0,1-.9.72A2.7,2.7,0,0,1,94,26.56Zm.17-.52a2.26,2.26,0,0,0,.9-.2,1.7,1.7,0,0,0,.71-.54.82.82,0,0,0,.12-.2.36.36,0,0,0,.05-.19v-.86a4.14,4.14,0,0,0-.71-.2,3.68,3.68,0,0,0-.73-.07,2.12,2.12,0,0,0-1.19.3.91.91,0,0,0-.46.82,1.19,1.19,0,0,0,.08.41,1.17,1.17,0,0,0,.66.62A1.41,1.41,0,0,0,94.15,26Z"/>
        <path d="M98.14,19.1h.69v6.17a.63.63,0,0,0,.16.46.59.59,0,0,0,.45.16l.26,0a1.38,1.38,0,0,0,.29-.08l.12.56a3.44,3.44,0,0,1-.47.13,3.26,3.26,0,0,1-.48.05.94.94,0,0,1-1-1Z"/>
        <path d="M110.88,26.46h-.69V23.53a2.53,2.53,0,0,0-.28-1.36,1,1,0,0,0-.88-.43,1.56,1.56,0,0,0-.57.11,2.13,2.13,0,0,0-.49.31,2.68,2.68,0,0,0-.4.48,2.55,2.55,0,0,0-.26.61v3.21h-.68V23.53a2.54,2.54,0,0,0-.29-1.37,1,1,0,0,0-.86-.42,1.53,1.53,0,0,0-1.06.42,2.29,2.29,0,0,0-.67,1.08v3.22h-.68V21.21h.62V22.4a2.43,2.43,0,0,1,.85-.94,2.07,2.07,0,0,1,1.16-.34,1.46,1.46,0,0,1,1.55,1.35,2.25,2.25,0,0,1,2-1.35,1.55,1.55,0,0,1,.74.16,1.27,1.27,0,0,1,.49.46,2.06,2.06,0,0,1,.27.71,4.45,4.45,0,0,1,.09.93Z"/>
        <path d="M113.69,26.56a2,2,0,0,1-.74-.13,1.65,1.65,0,0,1-.57-.35,1.55,1.55,0,0,1-.49-1.12,1.32,1.32,0,0,1,.16-.66,1.46,1.46,0,0,1,.45-.51,2.39,2.39,0,0,1,.7-.33,3.16,3.16,0,0,1,.9-.12,5.66,5.66,0,0,1,.81.07,3.5,3.5,0,0,1,.73.21v-.48a1.52,1.52,0,0,0-.39-1.1,1.46,1.46,0,0,0-1.08-.41,2.28,2.28,0,0,0-.84.16,3.81,3.81,0,0,0-.85.47l-.24-.46a4.12,4.12,0,0,1,1-.51,2.8,2.8,0,0,1,1-.17,2.1,2.1,0,0,1,1.53.55,2.07,2.07,0,0,1,.56,1.53v2.37c0,.19.08.28.24.28v.61h-.27a.63.63,0,0,1-.37-.12.46.46,0,0,1-.18-.37l0-.41a2.25,2.25,0,0,1-.91.72A2.7,2.7,0,0,1,113.69,26.56Zm.17-.52a2.26,2.26,0,0,0,.9-.2,1.7,1.7,0,0,0,.71-.54.82.82,0,0,0,.12-.2.36.36,0,0,0,0-.19v-.86a3.9,3.9,0,0,0-.71-.2,3.68,3.68,0,0,0-.73-.07,2.14,2.14,0,0,0-1.19.3.91.91,0,0,0-.46.82,1.19,1.19,0,0,0,.08.41,1.23,1.23,0,0,0,.25.36,1.07,1.07,0,0,0,.41.26A1.41,1.41,0,0,0,113.86,26Z"/>
        <path d="M120,26.56a2.3,2.3,0,0,1-1-.23,2.63,2.63,0,0,1-1.32-1.46,2.75,2.75,0,0,1-.19-1,3.15,3.15,0,0,1,.18-1.06,2.87,2.87,0,0,1,.5-.87,2.32,2.32,0,0,1,.76-.59,2.18,2.18,0,0,1,1-.21,2.09,2.09,0,0,1,1.18.34,2.84,2.84,0,0,1,.81.85V19.1h.69v6.47c0,.19.08.28.24.28v.61l-.27,0a.6.6,0,0,1-.42-.15A.46.46,0,0,1,122,26v-.55a2.47,2.47,0,0,1-.85.82A2.19,2.19,0,0,1,120,26.56Zm.14-.61a1.6,1.6,0,0,0,.55-.1,2,2,0,0,0,.53-.27,1.91,1.91,0,0,0,.43-.42,1,1,0,0,0,.22-.51V23a1.63,1.63,0,0,0-.29-.51,3.61,3.61,0,0,0-.45-.42,2.18,2.18,0,0,0-.52-.28,1.83,1.83,0,0,0-.55-.1,1.65,1.65,0,0,0-.77.18,1.84,1.84,0,0,0-.59.48,2.38,2.38,0,0,0-.52,1.47,2.29,2.29,0,0,0,.57,1.47,1.76,1.76,0,0,0,.62.46A1.67,1.67,0,0,0,120.14,26Z"/>
        <path d="M126.4,26.56a2.45,2.45,0,0,1-1.06-.22,2.61,2.61,0,0,1-.84-.59,2.8,2.8,0,0,1-.55-.87,2.89,2.89,0,0,1-.19-1.06,2.84,2.84,0,0,1,.19-1.05,2.71,2.71,0,0,1,.55-.85,2.85,2.85,0,0,1,.83-.59,2.76,2.76,0,0,1,2.11,0,2.57,2.57,0,0,1,.82.59,2.84,2.84,0,0,1,.54.86,2.94,2.94,0,0,1,.19,1,.92.92,0,0,1,0,.16c0,.05,0,.09,0,.11h-4.49a2.24,2.24,0,0,0,.2.78,2.12,2.12,0,0,0,.42.62,1.78,1.78,0,0,0,.6.41,1.72,1.72,0,0,0,.72.15,1.81,1.81,0,0,0,.51-.08,1.93,1.93,0,0,0,.47-.19,1.76,1.76,0,0,0,.37-.29,1.4,1.4,0,0,0,.26-.39l.59.16a1.77,1.77,0,0,1-.34.53,2.55,2.55,0,0,1-.51.41,2.35,2.35,0,0,1-.65.27A2.46,2.46,0,0,1,126.4,26.56Zm1.93-3a2.08,2.08,0,0,0-.19-.77,2,2,0,0,0-1-1,1.95,1.95,0,0,0-1.45,0,1.91,1.91,0,0,0-.6.4,1.73,1.73,0,0,0-.41.6,2.18,2.18,0,0,0-.19.77Z"/>
      </g>
</svg>